<svg width="17" height="17" viewBox="0 0 17 17" fill="none" xmlns="http://www.w3.org/2000/svg">
<path d="M16.7065 0.2925C16.3165 -0.0975 15.6835 -0.0975 15.2925 0.2925L8.4995 7.0855L1.7065 0.2925C1.3165 -0.0975 0.6835 -0.0975 0.2925 0.2925C-0.0975 0.6825 -0.0975 1.3155 0.2925 1.7065L7.7925 9.2065C7.9875 9.4025 8.2425 9.5005 8.4995 9.5005C8.7565 9.5005 9.0115 9.4025 9.2065 9.2075L16.7065 1.7075C17.0965 1.3175 17.0965 0.685499 16.7065 0.294499V0.2925Z" fill="black"/>
<path d="M0.292522 16.208C0.682522 16.598 1.31552 16.598 1.70652 16.208L8.49952 9.41499L15.2925 16.208C15.6825 16.598 16.3155 16.598 16.7065 16.208C17.0965 15.818 17.0965 15.185 16.7065 14.794L9.20652 7.29399C9.01152 7.09799 8.75652 6.99999 8.49952 6.99999C8.24252 6.99999 7.98752 7.09799 7.79252 7.29299L0.292523 14.793C-0.0974774 15.183 -0.0974775 15.815 0.292522 16.206L0.292522 16.208Z" fill="black"/>
</svg>
